<svg xmlns="http://www.w3.org/2000/svg" xmlns:xlink="http://www.w3.org/1999/xlink" width="165" height="39" viewBox="0 0 165 39">
    <defs>
        <path id="a" d="M37.283.33H0v37.283h37.283V.33z"/>
    </defs>
    <g fill="none" fill-rule="evenodd">
        <rect width="1103" height="498" stroke="#CCC" rx="10" transform="translate(-272 -389)"/>
        <g fill="#002957">
            <path d="M75.398 34.073a1.36 1.36 0 0 0 1.055-.5 9.09 9.09 0 0 0 2.22-5.842h.003V11.628c0-.751-.609-1.36-1.36-1.361h-.003c-.751 0-1.36.61-1.36 1.36v16.067h-.002a6.375 6.375 0 0 1-1.557 4.096l-.048.056a1.362 1.362 0 0 0 1.052 2.227M69.952 18.927v.549h-.003a6.398 6.398 0 0 1-12.796-.088 6.4 6.4 0 0 1 6.396-6.399h5.33c.592 0 1.073.481 1.073 1.074v4.864zm1.194-8.66h-7.598a9.122 9.122 0 1 0 6.404 15.621v1.261c0 .752.608 1.362 1.36 1.362h.003c.751 0 1.36-.61 1.36-1.362V11.796c0-.845-.685-1.53-1.53-1.53zM96.92 18.927v.549h-.002a6.398 6.398 0 0 1-12.796-.088 6.4 6.4 0 0 1 6.396-6.399h5.33c.592 0 1.072.481 1.072 1.074v4.864zm1.194-8.66h-7.598a9.121 9.121 0 0 0-9.117 9.121 9.122 9.122 0 0 0 15.521 6.5v1.261c0 .752.609 1.362 1.36 1.362h.003c.751 0 1.36-.61 1.36-1.362V11.796c0-.845-.684-1.53-1.529-1.53zM154.367 18.927v.549h-.003a6.398 6.398 0 0 1-12.795-.088 6.4 6.4 0 0 1 6.395-6.399h5.331c.592 0 1.072.481 1.072 1.074v4.864zm1.194-8.66h-7.598a9.122 9.122 0 1 0 6.404 15.621v1.261c0 .752.608 1.362 1.36 1.362h.002c.752 0 1.36-.61 1.36-1.362V11.796c0-.845-.684-1.53-1.528-1.53zM53.069 10.267H50.82v-4.42c0-.751-.61-1.36-1.361-1.361h-.003c-.75 0-1.36.61-1.36 1.361v4.42H45.85c-.751 0-1.36.609-1.362 1.36v.002c.001.752.61 1.36 1.362 1.36h2.248v9.608h.004a9.086 9.086 0 0 0 2.22 5.842l.053.062a1.362 1.362 0 1 0 2.004-1.845 6.375 6.375 0 0 1-1.555-4.096h-.002v-9.57h2.248a1.36 1.36 0 0 0 1.361-1.36v-.003c0-.751-.61-1.36-1.361-1.36M78.841 6.012a1.527 1.527 0 1 1-3.054 0 1.527 1.527 0 0 1 3.054 0M134.763 10.267h-.003c-.752 0-1.36.61-1.36 1.361v7.766a6.399 6.399 0 0 1-12.794.155l.003-.09h.001v-7.83c0-.752-.609-1.361-1.36-1.362h-.002-.004-.005c-.752 0-1.36.61-1.36 1.361v7.766c0 .057.002.112.004.169a6.397 6.397 0 0 1-12.794-.165v-7.77c0-.75-.608-1.36-1.36-1.361h-.002c-.752 0-1.36.61-1.36 1.361v7.766a9.122 9.122 0 0 0 16.877 4.796 9.12 9.12 0 0 0 16.876-4.73h.003v-7.832c0-.75-.61-1.36-1.36-1.361M163.09 28.939a1.36 1.36 0 0 1-1.054-.5 9.088 9.088 0 0 1-2.22-5.842h-.003V5.847c0-.752.609-1.36 1.36-1.362h.003c.75.002 1.36.61 1.36 1.362v16.712h.002a6.375 6.375 0 0 0 1.556 4.097l.049.056a1.362 1.362 0 0 1-1.052 2.227"/>
        </g>
        <g transform="translate(0 .058)">
            <mask id="b" fill="#fff">
                <use xlink:href="#a"/>
            </mask>
            <path fill="#002957" d="M34.159.33H18.63C8.34.336 0 8.68 0 18.97c0 10.297 8.346 18.643 18.642 18.643 10.21 0 18.498-8.209 18.634-18.388h.007V3.455A3.124 3.124 0 0 0 34.159.33m.356 5.428v13.429h-.005c-.116 8.668-7.174 15.659-15.868 15.659-8.767 0-15.874-7.107-15.874-15.875 0-8.763 7.102-15.868 15.864-15.873H31.855a2.66 2.66 0 0 1 2.66 2.66" mask="url(#b)"/>
            <path fill="#71C8F0" d="M19.268 19.598v12.395c6.694-.336 12.057-5.701 12.4-12.395h-12.4z" mask="url(#b)"/>
            <path fill="#FC3" d="M18.015 18.345v-12.5c-6.766.299-12.197 5.732-12.489 12.5h12.49z" mask="url(#b)"/>
            <path fill="#939" d="M31.691 18.345V8.024a2.194 2.194 0 0 0-2.193-2.194h-10.23v12.515h12.423z" mask="url(#b)"/>
        </g>
    </g>
</svg>
